<mxfile host="app.diagrams.net" modified="2023-10-25T03:01:33.760Z" agent="Mozilla/5.0 (Windows NT 10.0; Win64; x64) AppleWebKit/537.36 (KHTML, like Gecko) Chrome/118.0.0.0 Safari/537.36" etag="eV4eKwbSxhI5DZfttoWg" version="22.0.7" type="device">
  <diagram id="C5RBs43oDa-KdzZeNtuy" name="Page-1">
    <mxGraphModel dx="1075" dy="1640" grid="1" gridSize="10" guides="1" tooltips="1" connect="1" arrows="1" fold="1" page="1" pageScale="1" pageWidth="827" pageHeight="1169" math="0" shadow="0">
      <root>
        <mxCell id="WIyWlLk6GJQsqaUBKTNV-0" />
        <mxCell id="WIyWlLk6GJQsqaUBKTNV-1" parent="WIyWlLk6GJQsqaUBKTNV-0" />
        <mxCell id="WIyWlLk6GJQsqaUBKTNV-2" value="" style="rounded=0;html=1;jettySize=auto;orthogonalLoop=1;fontSize=11;endArrow=block;endFill=0;endSize=8;strokeWidth=1;shadow=0;labelBackgroundColor=none;edgeStyle=orthogonalEdgeStyle;" parent="WIyWlLk6GJQsqaUBKTNV-1" source="WIyWlLk6GJQsqaUBKTNV-3" target="WIyWlLk6GJQsqaUBKTNV-6" edge="1">
          <mxGeometry relative="1" as="geometry">
            <mxPoint x="384" y="80" as="targetPoint" />
          </mxGeometry>
        </mxCell>
        <mxCell id="WIyWlLk6GJQsqaUBKTNV-3" value="login" style="rounded=1;whiteSpace=wrap;html=1;fontSize=12;glass=0;strokeWidth=1;shadow=0;" parent="WIyWlLk6GJQsqaUBKTNV-1" vertex="1">
          <mxGeometry x="324" width="120" height="40" as="geometry" />
        </mxCell>
        <mxCell id="9n8LnPKbRWAZ-TGRdjwU-104" style="edgeStyle=orthogonalEdgeStyle;rounded=0;orthogonalLoop=1;jettySize=auto;html=1;exitX=1;exitY=0.5;exitDx=0;exitDy=0;entryX=0.75;entryY=1;entryDx=0;entryDy=0;" edge="1" parent="WIyWlLk6GJQsqaUBKTNV-1" source="WIyWlLk6GJQsqaUBKTNV-6" target="WIyWlLk6GJQsqaUBKTNV-3">
          <mxGeometry relative="1" as="geometry" />
        </mxCell>
        <mxCell id="9n8LnPKbRWAZ-TGRdjwU-105" value="No" style="edgeLabel;html=1;align=center;verticalAlign=middle;resizable=0;points=[];" vertex="1" connectable="0" parent="9n8LnPKbRWAZ-TGRdjwU-104">
          <mxGeometry x="-0.2656" relative="1" as="geometry">
            <mxPoint as="offset" />
          </mxGeometry>
        </mxCell>
        <mxCell id="WIyWlLk6GJQsqaUBKTNV-6" value="login successful?" style="rhombus;whiteSpace=wrap;html=1;shadow=0;fontFamily=Helvetica;fontSize=12;align=center;strokeWidth=1;spacing=6;spacingTop=-4;" parent="WIyWlLk6GJQsqaUBKTNV-1" vertex="1">
          <mxGeometry x="333" y="130" width="100" height="80" as="geometry" />
        </mxCell>
        <mxCell id="9n8LnPKbRWAZ-TGRdjwU-29" value="" style="edgeStyle=orthogonalEdgeStyle;rounded=0;orthogonalLoop=1;jettySize=auto;html=1;" edge="1" parent="WIyWlLk6GJQsqaUBKTNV-1" source="9n8LnPKbRWAZ-TGRdjwU-25" target="9n8LnPKbRWAZ-TGRdjwU-28">
          <mxGeometry relative="1" as="geometry" />
        </mxCell>
        <mxCell id="9n8LnPKbRWAZ-TGRdjwU-36" value="User" style="edgeLabel;html=1;align=center;verticalAlign=middle;resizable=0;points=[];" vertex="1" connectable="0" parent="9n8LnPKbRWAZ-TGRdjwU-29">
          <mxGeometry x="-0.277" y="1" relative="1" as="geometry">
            <mxPoint as="offset" />
          </mxGeometry>
        </mxCell>
        <mxCell id="9n8LnPKbRWAZ-TGRdjwU-37" style="edgeStyle=orthogonalEdgeStyle;rounded=0;orthogonalLoop=1;jettySize=auto;html=1;exitX=0;exitY=0.5;exitDx=0;exitDy=0;entryX=0;entryY=0.75;entryDx=0;entryDy=0;" edge="1" parent="WIyWlLk6GJQsqaUBKTNV-1" source="9n8LnPKbRWAZ-TGRdjwU-25" target="WIyWlLk6GJQsqaUBKTNV-3">
          <mxGeometry relative="1" as="geometry">
            <Array as="points">
              <mxPoint x="224" y="-250" />
              <mxPoint x="224" y="30" />
            </Array>
          </mxGeometry>
        </mxCell>
        <mxCell id="9n8LnPKbRWAZ-TGRdjwU-38" value="Admin" style="edgeLabel;html=1;align=center;verticalAlign=middle;resizable=0;points=[];" vertex="1" connectable="0" parent="9n8LnPKbRWAZ-TGRdjwU-37">
          <mxGeometry x="0.0049" y="-3" relative="1" as="geometry">
            <mxPoint as="offset" />
          </mxGeometry>
        </mxCell>
        <mxCell id="9n8LnPKbRWAZ-TGRdjwU-25" value="Start" style="rounded=1;whiteSpace=wrap;html=1;glass=0;strokeWidth=1;shadow=0;" vertex="1" parent="WIyWlLk6GJQsqaUBKTNV-1">
          <mxGeometry x="324" y="-280" width="120" height="60" as="geometry" />
        </mxCell>
        <mxCell id="9n8LnPKbRWAZ-TGRdjwU-30" value="" style="edgeStyle=orthogonalEdgeStyle;rounded=0;orthogonalLoop=1;jettySize=auto;html=1;" edge="1" parent="WIyWlLk6GJQsqaUBKTNV-1" source="9n8LnPKbRWAZ-TGRdjwU-28" target="WIyWlLk6GJQsqaUBKTNV-3">
          <mxGeometry relative="1" as="geometry" />
        </mxCell>
        <mxCell id="9n8LnPKbRWAZ-TGRdjwU-35" value="Yes" style="edgeLabel;html=1;align=center;verticalAlign=middle;resizable=0;points=[];" vertex="1" connectable="0" parent="9n8LnPKbRWAZ-TGRdjwU-30">
          <mxGeometry x="-0.1379" y="-1" relative="1" as="geometry">
            <mxPoint as="offset" />
          </mxGeometry>
        </mxCell>
        <mxCell id="9n8LnPKbRWAZ-TGRdjwU-32" value="" style="edgeStyle=orthogonalEdgeStyle;rounded=0;orthogonalLoop=1;jettySize=auto;html=1;" edge="1" parent="WIyWlLk6GJQsqaUBKTNV-1" source="9n8LnPKbRWAZ-TGRdjwU-28" target="9n8LnPKbRWAZ-TGRdjwU-31">
          <mxGeometry relative="1" as="geometry" />
        </mxCell>
        <mxCell id="9n8LnPKbRWAZ-TGRdjwU-34" value="No" style="edgeLabel;html=1;align=center;verticalAlign=middle;resizable=0;points=[];" vertex="1" connectable="0" parent="9n8LnPKbRWAZ-TGRdjwU-32">
          <mxGeometry x="0.0609" y="-1" relative="1" as="geometry">
            <mxPoint as="offset" />
          </mxGeometry>
        </mxCell>
        <mxCell id="9n8LnPKbRWAZ-TGRdjwU-28" value="is registred?" style="rhombus;whiteSpace=wrap;html=1;" vertex="1" parent="WIyWlLk6GJQsqaUBKTNV-1">
          <mxGeometry x="344" y="-170" width="80" height="80" as="geometry" />
        </mxCell>
        <mxCell id="9n8LnPKbRWAZ-TGRdjwU-31" value="register" style="rounded=1;whiteSpace=wrap;html=1;" vertex="1" parent="WIyWlLk6GJQsqaUBKTNV-1">
          <mxGeometry x="494" y="-155" width="110" height="50" as="geometry" />
        </mxCell>
        <mxCell id="9n8LnPKbRWAZ-TGRdjwU-33" style="edgeStyle=orthogonalEdgeStyle;rounded=0;orthogonalLoop=1;jettySize=auto;html=1;entryX=1.063;entryY=0.71;entryDx=0;entryDy=0;entryPerimeter=0;" edge="1" parent="WIyWlLk6GJQsqaUBKTNV-1">
          <mxGeometry relative="1" as="geometry">
            <mxPoint x="541.44" y="-105" as="sourcePoint" />
            <mxPoint x="444" y="28.399999999999864" as="targetPoint" />
            <Array as="points">
              <mxPoint x="541.44" y="28" />
            </Array>
          </mxGeometry>
        </mxCell>
        <mxCell id="9n8LnPKbRWAZ-TGRdjwU-42" value="" style="rounded=0;html=1;jettySize=auto;orthogonalLoop=1;fontSize=11;endArrow=block;endFill=0;endSize=8;strokeWidth=1;shadow=0;labelBackgroundColor=none;edgeStyle=orthogonalEdgeStyle;" edge="1" parent="WIyWlLk6GJQsqaUBKTNV-1" source="WIyWlLk6GJQsqaUBKTNV-6" target="9n8LnPKbRWAZ-TGRdjwU-4">
          <mxGeometry y="20" relative="1" as="geometry">
            <mxPoint as="offset" />
            <mxPoint x="220" y="220" as="sourcePoint" />
            <mxPoint x="220" y="290" as="targetPoint" />
          </mxGeometry>
        </mxCell>
        <mxCell id="9n8LnPKbRWAZ-TGRdjwU-107" value="Yes" style="edgeLabel;html=1;align=center;verticalAlign=middle;resizable=0;points=[];" vertex="1" connectable="0" parent="9n8LnPKbRWAZ-TGRdjwU-42">
          <mxGeometry x="-0.0358" relative="1" as="geometry">
            <mxPoint as="offset" />
          </mxGeometry>
        </mxCell>
        <mxCell id="9n8LnPKbRWAZ-TGRdjwU-45" value="" style="edgeStyle=orthogonalEdgeStyle;rounded=0;orthogonalLoop=1;jettySize=auto;html=1;" edge="1" parent="WIyWlLk6GJQsqaUBKTNV-1" source="9n8LnPKbRWAZ-TGRdjwU-4" target="9n8LnPKbRWAZ-TGRdjwU-44">
          <mxGeometry relative="1" as="geometry" />
        </mxCell>
        <mxCell id="9n8LnPKbRWAZ-TGRdjwU-46" value="Yes" style="edgeLabel;html=1;align=center;verticalAlign=middle;resizable=0;points=[];" vertex="1" connectable="0" parent="9n8LnPKbRWAZ-TGRdjwU-45">
          <mxGeometry x="-0.1882" relative="1" as="geometry">
            <mxPoint as="offset" />
          </mxGeometry>
        </mxCell>
        <mxCell id="9n8LnPKbRWAZ-TGRdjwU-48" value="" style="edgeStyle=orthogonalEdgeStyle;rounded=0;orthogonalLoop=1;jettySize=auto;html=1;" edge="1" parent="WIyWlLk6GJQsqaUBKTNV-1" source="9n8LnPKbRWAZ-TGRdjwU-4" target="9n8LnPKbRWAZ-TGRdjwU-47">
          <mxGeometry relative="1" as="geometry" />
        </mxCell>
        <mxCell id="9n8LnPKbRWAZ-TGRdjwU-52" value="No" style="edgeLabel;html=1;align=center;verticalAlign=middle;resizable=0;points=[];" vertex="1" connectable="0" parent="9n8LnPKbRWAZ-TGRdjwU-48">
          <mxGeometry x="-0.064" y="4" relative="1" as="geometry">
            <mxPoint as="offset" />
          </mxGeometry>
        </mxCell>
        <mxCell id="9n8LnPKbRWAZ-TGRdjwU-4" value="Is admin?" style="rhombus;whiteSpace=wrap;html=1;" vertex="1" parent="WIyWlLk6GJQsqaUBKTNV-1">
          <mxGeometry x="60" y="230" width="80" height="80" as="geometry" />
        </mxCell>
        <mxCell id="9n8LnPKbRWAZ-TGRdjwU-98" value="" style="edgeStyle=orthogonalEdgeStyle;rounded=0;orthogonalLoop=1;jettySize=auto;html=1;" edge="1" parent="WIyWlLk6GJQsqaUBKTNV-1" source="9n8LnPKbRWAZ-TGRdjwU-44" target="9n8LnPKbRWAZ-TGRdjwU-97">
          <mxGeometry relative="1" as="geometry" />
        </mxCell>
        <mxCell id="9n8LnPKbRWAZ-TGRdjwU-44" value="Admin Homepage" style="rounded=1;whiteSpace=wrap;html=1;" vertex="1" parent="WIyWlLk6GJQsqaUBKTNV-1">
          <mxGeometry x="40" y="390" width="120" height="60" as="geometry" />
        </mxCell>
        <mxCell id="9n8LnPKbRWAZ-TGRdjwU-50" value="" style="edgeStyle=orthogonalEdgeStyle;rounded=0;orthogonalLoop=1;jettySize=auto;html=1;" edge="1" parent="WIyWlLk6GJQsqaUBKTNV-1" source="9n8LnPKbRWAZ-TGRdjwU-47" target="9n8LnPKbRWAZ-TGRdjwU-49">
          <mxGeometry relative="1" as="geometry" />
        </mxCell>
        <mxCell id="9n8LnPKbRWAZ-TGRdjwU-51" value="Yes" style="edgeLabel;html=1;align=center;verticalAlign=middle;resizable=0;points=[];" vertex="1" connectable="0" parent="9n8LnPKbRWAZ-TGRdjwU-50">
          <mxGeometry x="-0.2293" y="-2" relative="1" as="geometry">
            <mxPoint as="offset" />
          </mxGeometry>
        </mxCell>
        <mxCell id="9n8LnPKbRWAZ-TGRdjwU-55" value="" style="edgeStyle=orthogonalEdgeStyle;rounded=0;orthogonalLoop=1;jettySize=auto;html=1;" edge="1" parent="WIyWlLk6GJQsqaUBKTNV-1" source="9n8LnPKbRWAZ-TGRdjwU-47" target="9n8LnPKbRWAZ-TGRdjwU-54">
          <mxGeometry relative="1" as="geometry" />
        </mxCell>
        <mxCell id="9n8LnPKbRWAZ-TGRdjwU-56" value="No" style="edgeLabel;html=1;align=center;verticalAlign=middle;resizable=0;points=[];" vertex="1" connectable="0" parent="9n8LnPKbRWAZ-TGRdjwU-55">
          <mxGeometry x="0.1255" y="-3" relative="1" as="geometry">
            <mxPoint as="offset" />
          </mxGeometry>
        </mxCell>
        <mxCell id="9n8LnPKbRWAZ-TGRdjwU-47" value="Is renter?" style="rhombus;whiteSpace=wrap;html=1;" vertex="1" parent="WIyWlLk6GJQsqaUBKTNV-1">
          <mxGeometry x="360" y="230" width="80" height="80" as="geometry" />
        </mxCell>
        <mxCell id="9n8LnPKbRWAZ-TGRdjwU-58" value="" style="edgeStyle=orthogonalEdgeStyle;rounded=0;orthogonalLoop=1;jettySize=auto;html=1;" edge="1" parent="WIyWlLk6GJQsqaUBKTNV-1" source="9n8LnPKbRWAZ-TGRdjwU-49" target="9n8LnPKbRWAZ-TGRdjwU-57">
          <mxGeometry relative="1" as="geometry" />
        </mxCell>
        <mxCell id="9n8LnPKbRWAZ-TGRdjwU-49" value="Renter Homepage" style="rounded=1;whiteSpace=wrap;html=1;" vertex="1" parent="WIyWlLk6GJQsqaUBKTNV-1">
          <mxGeometry x="340" y="390" width="120" height="60" as="geometry" />
        </mxCell>
        <mxCell id="9n8LnPKbRWAZ-TGRdjwU-96" value="" style="edgeStyle=orthogonalEdgeStyle;rounded=0;orthogonalLoop=1;jettySize=auto;html=1;" edge="1" parent="WIyWlLk6GJQsqaUBKTNV-1" source="9n8LnPKbRWAZ-TGRdjwU-54" target="9n8LnPKbRWAZ-TGRdjwU-86">
          <mxGeometry relative="1" as="geometry" />
        </mxCell>
        <mxCell id="9n8LnPKbRWAZ-TGRdjwU-54" value="Rentee Homepage" style="rounded=1;whiteSpace=wrap;html=1;" vertex="1" parent="WIyWlLk6GJQsqaUBKTNV-1">
          <mxGeometry x="670" y="400" width="120" height="60" as="geometry" />
        </mxCell>
        <mxCell id="9n8LnPKbRWAZ-TGRdjwU-60" value="" style="edgeStyle=orthogonalEdgeStyle;rounded=0;orthogonalLoop=1;jettySize=auto;html=1;" edge="1" parent="WIyWlLk6GJQsqaUBKTNV-1" source="9n8LnPKbRWAZ-TGRdjwU-57" target="9n8LnPKbRWAZ-TGRdjwU-59">
          <mxGeometry relative="1" as="geometry" />
        </mxCell>
        <mxCell id="9n8LnPKbRWAZ-TGRdjwU-57" value="Car Search" style="rounded=1;whiteSpace=wrap;html=1;" vertex="1" parent="WIyWlLk6GJQsqaUBKTNV-1">
          <mxGeometry x="340" y="530" width="120" height="60" as="geometry" />
        </mxCell>
        <mxCell id="9n8LnPKbRWAZ-TGRdjwU-65" style="edgeStyle=orthogonalEdgeStyle;rounded=0;orthogonalLoop=1;jettySize=auto;html=1;entryX=0.5;entryY=0;entryDx=0;entryDy=0;" edge="1" parent="WIyWlLk6GJQsqaUBKTNV-1" source="9n8LnPKbRWAZ-TGRdjwU-59" target="9n8LnPKbRWAZ-TGRdjwU-63">
          <mxGeometry relative="1" as="geometry" />
        </mxCell>
        <mxCell id="9n8LnPKbRWAZ-TGRdjwU-59" value="Car Reserve/Payment" style="rounded=1;whiteSpace=wrap;html=1;" vertex="1" parent="WIyWlLk6GJQsqaUBKTNV-1">
          <mxGeometry x="340" y="670" width="120" height="60" as="geometry" />
        </mxCell>
        <mxCell id="9n8LnPKbRWAZ-TGRdjwU-68" value="No" style="edgeStyle=orthogonalEdgeStyle;rounded=0;orthogonalLoop=1;jettySize=auto;html=1;" edge="1" parent="WIyWlLk6GJQsqaUBKTNV-1" source="9n8LnPKbRWAZ-TGRdjwU-63">
          <mxGeometry relative="1" as="geometry">
            <mxPoint x="500" y="850" as="targetPoint" />
          </mxGeometry>
        </mxCell>
        <mxCell id="9n8LnPKbRWAZ-TGRdjwU-71" value="" style="edgeStyle=orthogonalEdgeStyle;rounded=0;orthogonalLoop=1;jettySize=auto;html=1;" edge="1" parent="WIyWlLk6GJQsqaUBKTNV-1" source="9n8LnPKbRWAZ-TGRdjwU-63" target="9n8LnPKbRWAZ-TGRdjwU-70">
          <mxGeometry relative="1" as="geometry" />
        </mxCell>
        <mxCell id="9n8LnPKbRWAZ-TGRdjwU-72" value="Yes" style="edgeLabel;html=1;align=center;verticalAlign=middle;resizable=0;points=[];" vertex="1" connectable="0" parent="9n8LnPKbRWAZ-TGRdjwU-71">
          <mxGeometry x="-0.2828" y="2" relative="1" as="geometry">
            <mxPoint as="offset" />
          </mxGeometry>
        </mxCell>
        <mxCell id="9n8LnPKbRWAZ-TGRdjwU-63" value="is verified?" style="rhombus;whiteSpace=wrap;html=1;" vertex="1" parent="WIyWlLk6GJQsqaUBKTNV-1">
          <mxGeometry x="360" y="810" width="80" height="80" as="geometry" />
        </mxCell>
        <mxCell id="9n8LnPKbRWAZ-TGRdjwU-67" value="verification" style="rounded=1;whiteSpace=wrap;html=1;" vertex="1" parent="WIyWlLk6GJQsqaUBKTNV-1">
          <mxGeometry x="510" y="820" width="120" height="60" as="geometry" />
        </mxCell>
        <mxCell id="9n8LnPKbRWAZ-TGRdjwU-111" style="edgeStyle=orthogonalEdgeStyle;rounded=0;orthogonalLoop=1;jettySize=auto;html=1;exitX=0.5;exitY=1;exitDx=0;exitDy=0;entryX=0;entryY=0.5;entryDx=0;entryDy=0;" edge="1" parent="WIyWlLk6GJQsqaUBKTNV-1" source="9n8LnPKbRWAZ-TGRdjwU-70" target="9n8LnPKbRWAZ-TGRdjwU-110">
          <mxGeometry relative="1" as="geometry" />
        </mxCell>
        <mxCell id="9n8LnPKbRWAZ-TGRdjwU-70" value="Booking Confirmation" style="rounded=1;whiteSpace=wrap;html=1;" vertex="1" parent="WIyWlLk6GJQsqaUBKTNV-1">
          <mxGeometry x="340" y="980" width="120" height="60" as="geometry" />
        </mxCell>
        <mxCell id="9n8LnPKbRWAZ-TGRdjwU-73" style="edgeStyle=orthogonalEdgeStyle;rounded=0;orthogonalLoop=1;jettySize=auto;html=1;entryX=1.023;entryY=0.611;entryDx=0;entryDy=0;entryPerimeter=0;" edge="1" parent="WIyWlLk6GJQsqaUBKTNV-1" target="9n8LnPKbRWAZ-TGRdjwU-70">
          <mxGeometry relative="1" as="geometry">
            <mxPoint x="560" y="880" as="sourcePoint" />
            <Array as="points">
              <mxPoint x="560" y="1017" />
            </Array>
          </mxGeometry>
        </mxCell>
        <mxCell id="9n8LnPKbRWAZ-TGRdjwU-85" value="" style="edgeStyle=orthogonalEdgeStyle;rounded=0;orthogonalLoop=1;jettySize=auto;html=1;" edge="1" parent="WIyWlLk6GJQsqaUBKTNV-1" source="9n8LnPKbRWAZ-TGRdjwU-86" target="9n8LnPKbRWAZ-TGRdjwU-88">
          <mxGeometry relative="1" as="geometry" />
        </mxCell>
        <mxCell id="9n8LnPKbRWAZ-TGRdjwU-86" value="Add car" style="rounded=1;whiteSpace=wrap;html=1;" vertex="1" parent="WIyWlLk6GJQsqaUBKTNV-1">
          <mxGeometry x="670" y="530" width="120" height="60" as="geometry" />
        </mxCell>
        <mxCell id="9n8LnPKbRWAZ-TGRdjwU-87" style="edgeStyle=orthogonalEdgeStyle;rounded=0;orthogonalLoop=1;jettySize=auto;html=1;entryX=0.5;entryY=0;entryDx=0;entryDy=0;" edge="1" parent="WIyWlLk6GJQsqaUBKTNV-1" source="9n8LnPKbRWAZ-TGRdjwU-88" target="9n8LnPKbRWAZ-TGRdjwU-92">
          <mxGeometry relative="1" as="geometry" />
        </mxCell>
        <mxCell id="9n8LnPKbRWAZ-TGRdjwU-88" value="Update reservation" style="rounded=1;whiteSpace=wrap;html=1;" vertex="1" parent="WIyWlLk6GJQsqaUBKTNV-1">
          <mxGeometry x="670" y="670" width="120" height="60" as="geometry" />
        </mxCell>
        <mxCell id="9n8LnPKbRWAZ-TGRdjwU-89" value="No" style="edgeStyle=orthogonalEdgeStyle;rounded=0;orthogonalLoop=1;jettySize=auto;html=1;" edge="1" parent="WIyWlLk6GJQsqaUBKTNV-1" source="9n8LnPKbRWAZ-TGRdjwU-92" target="9n8LnPKbRWAZ-TGRdjwU-93">
          <mxGeometry relative="1" as="geometry" />
        </mxCell>
        <mxCell id="9n8LnPKbRWAZ-TGRdjwU-90" value="" style="edgeStyle=orthogonalEdgeStyle;rounded=0;orthogonalLoop=1;jettySize=auto;html=1;" edge="1" parent="WIyWlLk6GJQsqaUBKTNV-1" source="9n8LnPKbRWAZ-TGRdjwU-92" target="9n8LnPKbRWAZ-TGRdjwU-94">
          <mxGeometry relative="1" as="geometry" />
        </mxCell>
        <mxCell id="9n8LnPKbRWAZ-TGRdjwU-91" value="Yes" style="edgeLabel;html=1;align=center;verticalAlign=middle;resizable=0;points=[];" vertex="1" connectable="0" parent="9n8LnPKbRWAZ-TGRdjwU-90">
          <mxGeometry x="-0.2828" y="2" relative="1" as="geometry">
            <mxPoint as="offset" />
          </mxGeometry>
        </mxCell>
        <mxCell id="9n8LnPKbRWAZ-TGRdjwU-92" value="is verified?" style="rhombus;whiteSpace=wrap;html=1;" vertex="1" parent="WIyWlLk6GJQsqaUBKTNV-1">
          <mxGeometry x="690" y="810" width="80" height="80" as="geometry" />
        </mxCell>
        <mxCell id="9n8LnPKbRWAZ-TGRdjwU-93" value="verification" style="rounded=1;whiteSpace=wrap;html=1;" vertex="1" parent="WIyWlLk6GJQsqaUBKTNV-1">
          <mxGeometry x="830" y="820" width="120" height="60" as="geometry" />
        </mxCell>
        <mxCell id="9n8LnPKbRWAZ-TGRdjwU-114" style="edgeStyle=orthogonalEdgeStyle;rounded=0;orthogonalLoop=1;jettySize=auto;html=1;exitX=0.5;exitY=1;exitDx=0;exitDy=0;entryX=0.5;entryY=0;entryDx=0;entryDy=0;" edge="1" parent="WIyWlLk6GJQsqaUBKTNV-1" source="9n8LnPKbRWAZ-TGRdjwU-94" target="9n8LnPKbRWAZ-TGRdjwU-110">
          <mxGeometry relative="1" as="geometry" />
        </mxCell>
        <mxCell id="9n8LnPKbRWAZ-TGRdjwU-94" value="Posting Confirmation" style="rounded=1;whiteSpace=wrap;html=1;" vertex="1" parent="WIyWlLk6GJQsqaUBKTNV-1">
          <mxGeometry x="670" y="980" width="120" height="60" as="geometry" />
        </mxCell>
        <mxCell id="9n8LnPKbRWAZ-TGRdjwU-95" style="edgeStyle=orthogonalEdgeStyle;rounded=0;orthogonalLoop=1;jettySize=auto;html=1;entryX=1.023;entryY=0.611;entryDx=0;entryDy=0;entryPerimeter=0;" edge="1" parent="WIyWlLk6GJQsqaUBKTNV-1" source="9n8LnPKbRWAZ-TGRdjwU-93" target="9n8LnPKbRWAZ-TGRdjwU-94">
          <mxGeometry relative="1" as="geometry">
            <Array as="points">
              <mxPoint x="890" y="1017" />
            </Array>
          </mxGeometry>
        </mxCell>
        <mxCell id="9n8LnPKbRWAZ-TGRdjwU-100" value="" style="edgeStyle=orthogonalEdgeStyle;rounded=0;orthogonalLoop=1;jettySize=auto;html=1;" edge="1" parent="WIyWlLk6GJQsqaUBKTNV-1" source="9n8LnPKbRWAZ-TGRdjwU-97" target="9n8LnPKbRWAZ-TGRdjwU-99">
          <mxGeometry relative="1" as="geometry">
            <Array as="points">
              <mxPoint x="100" y="1330" />
            </Array>
          </mxGeometry>
        </mxCell>
        <mxCell id="9n8LnPKbRWAZ-TGRdjwU-97" value="Dashboard Analytics" style="rounded=1;whiteSpace=wrap;html=1;" vertex="1" parent="WIyWlLk6GJQsqaUBKTNV-1">
          <mxGeometry x="40" y="530" width="120" height="60" as="geometry" />
        </mxCell>
        <mxCell id="9n8LnPKbRWAZ-TGRdjwU-109" value="" style="edgeStyle=orthogonalEdgeStyle;rounded=0;orthogonalLoop=1;jettySize=auto;html=1;" edge="1" parent="WIyWlLk6GJQsqaUBKTNV-1" source="9n8LnPKbRWAZ-TGRdjwU-99" target="9n8LnPKbRWAZ-TGRdjwU-108">
          <mxGeometry relative="1" as="geometry" />
        </mxCell>
        <mxCell id="9n8LnPKbRWAZ-TGRdjwU-99" value="Logout" style="rounded=1;whiteSpace=wrap;html=1;" vertex="1" parent="WIyWlLk6GJQsqaUBKTNV-1">
          <mxGeometry x="340" y="1300" width="120" height="60" as="geometry" />
        </mxCell>
        <mxCell id="9n8LnPKbRWAZ-TGRdjwU-108" value="End" style="rounded=1;whiteSpace=wrap;html=1;" vertex="1" parent="WIyWlLk6GJQsqaUBKTNV-1">
          <mxGeometry x="340" y="1440" width="120" height="60" as="geometry" />
        </mxCell>
        <mxCell id="9n8LnPKbRWAZ-TGRdjwU-119" style="edgeStyle=orthogonalEdgeStyle;rounded=0;orthogonalLoop=1;jettySize=auto;html=1;exitX=1;exitY=0.5;exitDx=0;exitDy=0;entryX=0;entryY=0.5;entryDx=0;entryDy=0;" edge="1" parent="WIyWlLk6GJQsqaUBKTNV-1" source="9n8LnPKbRWAZ-TGRdjwU-110" target="9n8LnPKbRWAZ-TGRdjwU-116">
          <mxGeometry relative="1" as="geometry" />
        </mxCell>
        <mxCell id="9n8LnPKbRWAZ-TGRdjwU-121" value="yes" style="edgeLabel;html=1;align=center;verticalAlign=middle;resizable=0;points=[];" vertex="1" connectable="0" parent="9n8LnPKbRWAZ-TGRdjwU-119">
          <mxGeometry x="0.016" y="3" relative="1" as="geometry">
            <mxPoint as="offset" />
          </mxGeometry>
        </mxCell>
        <mxCell id="9n8LnPKbRWAZ-TGRdjwU-127" style="edgeStyle=orthogonalEdgeStyle;rounded=0;orthogonalLoop=1;jettySize=auto;html=1;exitX=0.5;exitY=1;exitDx=0;exitDy=0;entryX=0.5;entryY=0;entryDx=0;entryDy=0;" edge="1" parent="WIyWlLk6GJQsqaUBKTNV-1" source="9n8LnPKbRWAZ-TGRdjwU-110" target="9n8LnPKbRWAZ-TGRdjwU-99">
          <mxGeometry relative="1" as="geometry">
            <Array as="points">
              <mxPoint x="400" y="1160" />
            </Array>
          </mxGeometry>
        </mxCell>
        <mxCell id="9n8LnPKbRWAZ-TGRdjwU-128" value="No" style="edgeLabel;html=1;align=center;verticalAlign=middle;resizable=0;points=[];" vertex="1" connectable="0" parent="9n8LnPKbRWAZ-TGRdjwU-127">
          <mxGeometry x="-0.3811" y="-2" relative="1" as="geometry">
            <mxPoint as="offset" />
          </mxGeometry>
        </mxCell>
        <mxCell id="9n8LnPKbRWAZ-TGRdjwU-110" value="Ride completed?" style="rhombus;whiteSpace=wrap;html=1;" vertex="1" parent="WIyWlLk6GJQsqaUBKTNV-1">
          <mxGeometry x="540" y="1080" width="80" height="80" as="geometry" />
        </mxCell>
        <mxCell id="9n8LnPKbRWAZ-TGRdjwU-126" style="edgeStyle=orthogonalEdgeStyle;rounded=0;orthogonalLoop=1;jettySize=auto;html=1;exitX=0;exitY=0.5;exitDx=0;exitDy=0;" edge="1" parent="WIyWlLk6GJQsqaUBKTNV-1" source="9n8LnPKbRWAZ-TGRdjwU-112" target="9n8LnPKbRWAZ-TGRdjwU-99">
          <mxGeometry relative="1" as="geometry" />
        </mxCell>
        <mxCell id="9n8LnPKbRWAZ-TGRdjwU-112" value="Feedback" style="rounded=1;whiteSpace=wrap;html=1;" vertex="1" parent="WIyWlLk6GJQsqaUBKTNV-1">
          <mxGeometry x="610" y="1300" width="120" height="60" as="geometry" />
        </mxCell>
        <mxCell id="9n8LnPKbRWAZ-TGRdjwU-124" style="edgeStyle=orthogonalEdgeStyle;rounded=0;orthogonalLoop=1;jettySize=auto;html=1;exitX=0.5;exitY=1;exitDx=0;exitDy=0;entryX=0.75;entryY=0;entryDx=0;entryDy=0;" edge="1" parent="WIyWlLk6GJQsqaUBKTNV-1" source="9n8LnPKbRWAZ-TGRdjwU-116" target="9n8LnPKbRWAZ-TGRdjwU-99">
          <mxGeometry relative="1" as="geometry">
            <Array as="points">
              <mxPoint x="760" y="1210" />
              <mxPoint x="430" y="1210" />
            </Array>
          </mxGeometry>
        </mxCell>
        <mxCell id="9n8LnPKbRWAZ-TGRdjwU-125" value="No" style="edgeLabel;html=1;align=center;verticalAlign=middle;resizable=0;points=[];" vertex="1" connectable="0" parent="9n8LnPKbRWAZ-TGRdjwU-124">
          <mxGeometry x="-0.0046" y="-1" relative="1" as="geometry">
            <mxPoint as="offset" />
          </mxGeometry>
        </mxCell>
        <mxCell id="9n8LnPKbRWAZ-TGRdjwU-116" value="provide feedback?" style="rhombus;whiteSpace=wrap;html=1;" vertex="1" parent="WIyWlLk6GJQsqaUBKTNV-1">
          <mxGeometry x="720" y="1080" width="80" height="80" as="geometry" />
        </mxCell>
        <mxCell id="9n8LnPKbRWAZ-TGRdjwU-120" style="edgeStyle=orthogonalEdgeStyle;rounded=0;orthogonalLoop=1;jettySize=auto;html=1;exitX=1;exitY=0.5;exitDx=0;exitDy=0;" edge="1" parent="WIyWlLk6GJQsqaUBKTNV-1" source="9n8LnPKbRWAZ-TGRdjwU-116">
          <mxGeometry relative="1" as="geometry">
            <mxPoint x="810" y="1130" as="sourcePoint" />
            <mxPoint x="730" y="1330" as="targetPoint" />
            <Array as="points">
              <mxPoint x="820" y="1120" />
              <mxPoint x="820" y="1330" />
            </Array>
          </mxGeometry>
        </mxCell>
        <mxCell id="9n8LnPKbRWAZ-TGRdjwU-123" value="Yes" style="edgeLabel;html=1;align=center;verticalAlign=middle;resizable=0;points=[];" vertex="1" connectable="0" parent="9n8LnPKbRWAZ-TGRdjwU-120">
          <mxGeometry x="-0.4615" y="-3" relative="1" as="geometry">
            <mxPoint as="offset" />
          </mxGeometry>
        </mxCell>
      </root>
    </mxGraphModel>
  </diagram>
</mxfile>
